<?xml version="1.0" encoding="UTF-8"?>
<svg id="Layer_3" data-name="Layer 3" xmlns="http://www.w3.org/2000/svg" viewBox="0 0 482 261">
  <defs>
    <style>
      .cls-1 {
        fill: #fff;
      }
    </style>
  </defs>
  <g>
    <path class="cls-1" d="M286.94,41.92c-3.28,0-6.29,1.47-8.49,4.13-1.8,2.18-2.62,4.91-2.33,7.69,0,.04,0,.08.01.13-1.83-.43-3.53-.69-5.09-.69-4.12,0-7.53,1.98-9.12,5.29-1.04,2.16-2.03,6.3,1.69,11.26-7.11,1.86-16.6,3.45-28.21,3.45-6.62,0-13.44-.53-20.25-1.59-4.29-.66-8.53-1-12.6-1-18.12,0-30.95,6.59-41.26,11.89-.89.46-1.76.91-2.63,1.35-2.74,1.39-12.46,5.24-17.59,5.74-.64-1.07-1.19-2.08-1.74-3.07-3.1-5.62-6.3-11.44-17.89-13.51-.96-.17-1.93-.26-2.96-.26-2.39,0-4.63.46-7.01.95-3.17.65-6.76,1.39-12.06,1.39-2.2,0-4.55-.13-6.98-.39-11.69-1.25-18.58-7.43-19.33-8.13-3.12-2.92-6.21-3.53-8.26-3.53-2.78,0-5.37,1.11-7.3,3.12-2.4,2.51-3.5,6.04-3.28,10.49.72,14.38,20.58,35.27,50.07,35.27,1.01,0,2.03-.02,3.04-.07,2.54-.12,4.46-.4,5.86-.61.53-.08,1.11-.16,1.47-.2.36.21,1.19.76,2.85,2.2,6.84,5.91,17.12,8.06,25.5,9.25.65,3.4,1.63,7.23,6.33,11.74,1.6,1.54,1.93,2.44,2.64,4.42,1.68,4.66,3.88,9.3,12.18,14.75,1.85,1.21,3.6,2.33,5.29,3.4,10.9,6.92,16.9,10.73,21.09,23.43.13.39.25.77.37,1.13,2.34,7.22,5.05,12.97,15.25,14.6-.69.87-1.3,1.85-1.84,2.94l-1.22,2.49c-2.02,4.11-3.13,6.38-3.78,8.39-1.06,3.21-.57,6.69,1.32,9.27,1.85,2.54,4.85,3.99,8.23,3.99s7.57-1.51,13.1-4.9c1.16-.71,1.28-.72,2.36-.74,3.38-.07,7.16-.51,12.9-5.09.17.2.33.41.5.61,2.75,3.37,6.17,7.57,14.55,9.59,1.59.38,5.37,3.55,7.84,6.98,2.64,5.03,6.8,6.09,9.82,6.09.53,0,1.07-.03,1.62-.1,3.8-.46,9.44-2.21,10.07-2.4,3.55-1.12,6.14-3.94,6.94-7.55.88-3.99-.56-8.39-3.69-11.23-.54-.49-1.37-1.19-2.31-1.96.21-2.12-.16-4.3-1.16-6.33-2.78-5.64-7.42-7.63-10.81-9.09-.32-.14-.64-.27-.97-.42-.43-.19-1.22-.97-2.06-1.8-.28-.27-.57-.56-.88-.86,1.55-.9,2.48-.97,2.75-.97h.08c9.73.41,17.33,1.5,26.22,3.75.16.04.33.09.5.14,1.05.29,2.64.73,4.53.73,3.02,0,5.83-1.12,8.12-3.23,1.76-1.61,3.15-3.44,4.27-4.91.4-.52.85-1.12,1.07-1.36,4.77-5.26,2.75-10.82,1.99-12.91-.33-.93-.76-1.77-1.21-2.66-1.25-2.48-2.81-5.57-2.52-11.2.01-.23.1-.71.19-1.17.76-4.13,1.14-8.78-2.8-16.19,2.15-9.36,6.15-14.73,14.49-19.82,5.14-3.14,17.65-8.21,29.76-11.4.27.4.54.84.82,1.29,2.26,3.63,5.69,9.11,15.37,11.52,2.48.62,3.36.94,3.92,1.44,1.04.93,2.19,1.67,3.31,2.39,1.54.99,3.01,1.94,4.03,3.23-.07,2.22-.16,6.69,3.47,10.58,3.74,4.01,10.49,6.11,15.23,6.11,1.35,0,2.61-.17,3.74-.5,6.02-1.76,8.03-5.97,9.11-8.23.25-.52.54-.82,1.24-1.49,1.43-1.39,4.4-4.28,4.13-9.24,0-.16,0-.3,0-.56.08-2.45-.28-4.68-2.29-7.53-6.19-8.78-8.64-17.02-11.01-24.99-.26-.86-.51-1.71-.76-2.54-.27-.9-.47-1.82-.67-2.79-.85-4.01-1.91-9.01-8.34-14.7-6.77-5.99-8.45-9.42-9.31-14-.19-1-.37-2.08-.56-3.21-.48-2.87-.97-5.84-1.78-8.38-2.47-7.71-7.52-8.86-10.31-8.86-2,0-3.94.6-5.76,1.78-3.41,2.24-5.42,6.41-7.35,15.56-3.37-.43-6.84-1.61-11.74-4.95-4.47-3.04-7.5-4.29-10.45-4.29-.98,0-3.3.18-5.46,1.73-.38-.2-.75-.4-1.13-.6-4.32-2.31-8.41-4.49-12.57-4.49-2.68,0-5.1.89-7,2.57-.62.55-1.49,1.46-2.17,2.73-.42-.12-.87-.24-1.33-.37-4.71-1.3-8.15-3.6-11.19-5.62-3.31-2.2-6.43-4.28-10.44-4.28h0Z"/>
    <path class="cls-1" d="M409.73,126.16c1.23,1.75.76,2.08.86,3.98.14,2.58-2.75,3.01-4.61,6.9-1.02,2.14-1.77,3.33-4.16,4.03-2.38.7-8.39-.75-10.86-3.4-2.48-2.65-.57-6.04-1.76-8.17-2.73-4.88-7.53-6.72-9.58-8.55-2.06-1.83-4.38-2.5-7.3-3.23-8.08-2.01-9.14-6.26-12.04-10.32-2.9-4.05-4.65-3.34-5.67-3.09-12.58,3.07-27.48,8.75-34.35,12.94-11.61,7.09-16.44,15.19-18.72,27.92,5.66,9.14,3.23,11.98,3.05,15.61-.5,9.69,3.31,14.53,4.19,16.96.88,2.43.81,3.57-.43,4.93-1.23,1.36-2.86,3.96-4.83,5.76-1.96,1.81-3.85.97-5.75.49-9.97-2.53-18.07-3.58-27.85-3.99-6.59-.28-12.62,6.18-14.28,7.98-1.67,1.8.82,2.94,2.18,3.83,3.8,2.49,5.37,5.53,8.62,6.97,3.26,1.44,6.19,2.38,7.85,5.74,1.19,2.42-.38,4.46-1.58,5.44,1.57.89,5.17,3.71,6.84,5.22,1.66,1.51,2.02,4.65-.28,5.37-2.29.72-6.3,1.81-8.63,2.09-2.86.35-3.17-1.55-3.74-2.37-2.54-3.64-7.96-9.29-12.7-10.42-8.46-2.04-8.88-6.47-14.36-11.36-3.17-2.83-3.63-.47-7.53,2.65-7.51,6-7.81,1.19-14.48,5.29-11.05,6.77-11.44,2.56-10.86.8.57-1.77,1.96-4.47,4.58-9.84,2.96-6.07,7.55-.88,11.42-4.32,2.98-2.65,5.2-6.32,5.2-6.32-5.42-5.65-6.77-2.78-17.39-3.26-9.86-.45-10.36-3.84-12.61-10.69-5.82-17.67-15.64-21.83-29.56-30.97-11.64-7.65-6.65-11.5-13.68-18.25-3.6-3.46-3.65-5.66-4.39-9.41-.74-3.75-1.33-3.74-4.7-4.24-3.37-.5-16.36-1.84-23.04-7.61-7.2-6.22-7.34-3.73-15.8-3.33-27.47,1.3-44.27-17.76-44.77-27.68-.27-5.4,2.54-6.59,5.4-3.92,2.86,2.67,11.24,8.89,23.95,10.25,17.08,1.83,23.19-2.71,28.45-1.77,10.35,1.85,9.86,6.39,15.66,15.18,3.35,5.08,23.77-3.66,26.59-5.09,12.94-6.56,27.46-15.21,51.64-11.47,28.03,4.34,48.9-.65,59.55-4.44,8.2-2.91,4.11-3.55,2.2-4.95-1.9-1.39-7.78-5.63-6.56-8.16,1.82-3.78,22.86,7.56,26.14,3.54,1.54-1.9-14.42-9.75-10.64-14.34,3.76-4.56,8.85,4.8,21.81,8.38,7.37,2.04,9.95,2.94,10.91,1.76,1.93-2.39-1.89-4.12.04-5.84,2.57-2.28,9.65,2.95,15.82,5.68,6.52,2.88-.42-7.74,10.98.03,8.44,5.75,14.17,6.51,20.43,6.57,4.08.04,2.59-1.31,3.16-4.25.57-2.94,2.26-11.45,4.37-12.84,4.23-2.74,4.9,6.65,6.2,13.51,1.3,6.85,4.23,11.7,11.85,18.45,5.86,5.19,5.12,8.72,6.68,13.85,2.65,8.75,5.21,18.94,12.86,29.79ZM250.55,165.97c.51,2.8,3.36,3.08,6.15,3.1,3.65-4.72,5.55-9.04,6.54-11.94-.54-1.2-1.56-4.4-2.19-6.07-.64-1.67-2.45-.93-4.32-.61-13,2.26-26.66-7.03-37.84-8.87-4.07-.66-3.2,1.7-2.68,4.31.52,2.61,3.94,15.31,6.71,21.86,2.22,5.24,6.77,7.07,12.12,8,6.59,1.15,8.16,5.36,11.54,7.03,1.38-.92,3.08-2.81,3.63-4.2-.67-2.17-2.68-2.27-5.17-3.12-4.32-1.49-5.35-3.31-7.31-4.69-5.97-4.26-4.58-7.62-1.33-7.35,3.25.27,9.2.25,11.1-.03,1.55-.23,2.52-.21,3.04,2.58ZM283.13,162.85c-1.9,2.83-6.04,9.03-6.79,10.44-.76,1.41-2.21,3.63,1.96,4.09,4.17.46,9.77,1.22,12.01.8,2.51-.47,4.33-1.53,2.61-4.67-1.27-2.31-6.02-9.54-6.71-10.44-.69-.91-1.73-2.22-3.07-.21Z"/>
  </g>
  <path class="cls-1" d="M306.48,224.17c0,3-2.44,5.45-5.47,5.45s-5.47-2.45-5.47-5.45,2.45-5.43,5.47-5.43,5.47,2.45,5.47,5.43ZM305.58,224.62c.24-2.82-1.8-5.16-4.59-5.15-2.25,0-4.38,2.05-4.55,4.29-.21,2.82,1.83,5.12,4.59,5.11,2.35-.01,4.35-1.92,4.55-4.26ZM299.86,227.42h-.88v-6.46h2.5c1.45,0,2.1.63,2.1,1.78s-.76,1.65-1.51,1.81l1.82,2.87h-1.01l-1.77-2.87h-1.26v2.87ZM300.89,223.81c.84,0,1.8.04,1.8-1.09,0-.9-.73-1.04-1.41-1.04h-1.42v2.12h1.02Z"/>
</svg>